ffmpeg started on 2016-11-27 at 13:47:27
Report written to "Output/NVENCh264/results/ffmpeg/old_town_cross_2160p50llhq12000k.log"
Command line:
Tools/ffmpeg/ffmpeg -benchmark -y -i Input/y4m/old_town_cross_2160p50.y4m -c:v h264_nvenc -preset llhq -b:v 12000k -an Output/NVENCh264/encoded/old_town_cross_2160p50llhq12000k.mkv
ffmpeg version N-82227-gdb23fde Copyright (c) 2000-2016 the FFmpeg developers
  built with gcc 5.4.0 (Ubuntu 5.4.0-6ubuntu1~16.04.2) 20160609
  configuration: --prefix=/home/jaroslav/ffmpeg_build --pkg-config-flags=--static --extra-cflags=-I/home/jaroslav/ffmpeg_build/include --extra-ldflags=-L/home/jaroslav/ffmpeg_build/lib --bindir=/home/jaroslav/bin --enable-gpl --enable-libass --enable-libfdk-aac --enable-libfreetype --enable-libmp3lame --enable-libopus --enable-libtheora --enable-libvorbis --enable-libvpx --enable-libx264 --enable-libx265 --enable-nvenc --enable-libmfx --enable-libxvid --enable-libgsm --enable-libopencore-amrnb --enable-version3 --enable-nonfree
  libavutil      55. 35.100 / 55. 35.100
  libavcodec     57. 66.101 / 57. 66.101
  libavformat    57. 57.100 / 57. 57.100
  libavdevice    57.  2.100 / 57.  2.100
  libavfilter     6. 66.100 /  6. 66.100
  libswscale      4.  3.100 /  4.  3.100
  libswresample   2.  4.100 /  2.  4.100
  libpostproc    54.  2.100 / 54.  2.100
Input #0, yuv4mpegpipe, from 'Input/y4m/old_town_cross_2160p50.y4m':
  Duration: 00:00:10.00, start: 0.000000, bitrate: 4976642 kb/s
    Stream #0:0: Video: rawvideo (I420 / 0x30323449), yuv420p(progressive), 3840x2160, SAR 1:1 DAR 16:9, 50 fps, 50 tbr, 50 tbn, 50 tbc
[h264_nvenc @ 0x3e32120] The variable bitrate rate-control requires the 'qmin' and/or 'qmax' option set.
Output #0, matroska, to 'Output/NVENCh264/encoded/old_town_cross_2160p50llhq12000k.mkv':
  Metadata:
    encoder         : Lavf57.57.100
    Stream #0:0: Video: h264 (h264_nvenc) (Main) (H264 / 0x34363248), yuv420p, 3840x2160 [SAR 1:1 DAR 16:9], q=-1--1, 12000 kb/s, 50 fps, 1k tbn, 50 tbc
    Metadata:
      encoder         : Lavc57.66.101 h264_nvenc
    Side data:
      cpb: bitrate max/min/avg: 0/0/12000000 buffer size: 24000000 vbv_delay: -1
Stream mapping:
  Stream #0:0 -> #0:0 (rawvideo (native) -> h264 (h264_nvenc))
Press [q] to stop, [?] for help
frame=    9 fps=0.0 q=0.0 size=       0kB time=00:00:00.00 bitrate=N/A speed=   0x    frame=   27 fps= 25 q=0.0 size=       0kB time=00:00:00.00 bitrate=N/A speed=   0x    frame=   45 fps= 28 q=33.0 size=       1kB time=00:00:00.28 bitrate=  21.3kbits/s speed=0.176x    frame=   55 fps= 25 q=32.0 size=       1kB time=00:00:00.48 bitrate=  12.5kbits/s speed=0.215x    frame=   73 fps= 27 q=32.0 size=       1kB time=00:00:00.84 bitrate=   7.1kbits/s speed=0.306x    frame=   91 fps= 28 q=32.0 size=       1kB time=00:00:01.20 bitrate=   5.0kbits/s speed=0.368x    frame=  109 fps= 29 q=32.0 size=       1kB time=00:00:01.56 bitrate=   3.8kbits/s speed=0.413x    frame=  127 fps= 30 q=32.0 size=       1kB time=00:00:01.92 bitrate=   3.1kbits/s speed=0.446x    frame=  145 fps= 30 q=32.0 size=       1kB time=00:00:02.28 bitrate=   2.6kbits/s speed=0.474x    frame=  163 fps= 31 q=32.0 size=       1kB time=00:00:02.64 bitrate=   2.3kbits/s speed=0.495x    frame=  181 fps= 31 q=32.0 size=       1kB time=00:00:03.00 bitrate=   2.0kbits/s speed=0.513x    frame=  199 fps= 31 q=32.0 size=       1kB time=00:00:03.36 bitrate=   1.8kbits/s speed=0.529x    frame=  217 fps= 32 q=31.0 size=    5146kB time=00:00:03.72 bitrate=11328.7kbits/s speed=0.54x    frame=  235 fps= 32 q=33.0 size=    5146kB time=00:00:04.08 bitrate=10329.3kbits/s speed=0.552x    frame=  253 fps= 32 q=32.0 size=    5146kB time=00:00:04.44 bitrate=9492.0kbits/s speed=0.561x    frame=  271 fps= 32 q=32.0 size=    5146kB time=00:00:04.80 bitrate=8780.3kbits/s speed=0.57x    frame=  289 fps= 32 q=31.0 size=    7133kB time=00:00:05.16 bitrate=11322.3kbits/s speed=0.577x    frame=  307 fps= 32 q=31.0 size=    7133kB time=00:00:05.52 bitrate=10584.0kbits/s speed=0.583x    frame=  325 fps= 33 q=33.0 size=    7133kB time=00:00:05.88 bitrate=9936.1kbits/s speed=0.589x    frame=  343 fps= 33 q=32.0 size=    7133kB time=00:00:06.24 bitrate=9362.9kbits/s speed=0.595x    frame=  361 fps= 33 q=32.0 size=    7133kB time=00:00:06.60 bitrate=8852.3kbits/s speed= 0.6x    frame=  379 fps= 33 q=32.0 size=    7133kB time=00:00:06.96 bitrate=8394.5kbits/s speed=0.604x    frame=  397 fps= 33 q=32.0 size=    7133kB time=00:00:07.32 bitrate=7981.7kbits/s speed=0.608x    frame=  415 fps= 33 q=33.0 size=    7133kB time=00:00:07.68 bitrate=7607.6kbits/s speed=0.612x    frame=  433 fps= 33 q=32.0 size=    7133kB time=00:00:08.04 bitrate=7267.0kbits/s speed=0.616x    frame=  451 fps= 33 q=31.0 size=    7133kB time=00:00:08.40 bitrate=6955.6kbits/s speed=0.619x    frame=  468 fps= 33 q=30.0 size=   12255kB time=00:00:08.74 bitrate=11485.1kbits/s speed=0.621x    frame=  486 fps= 33 q=32.0 size=   12255kB time=00:00:09.10 bitrate=11030.8kbits/s speed=0.624x    frame=  500 fps= 33 q=33.0 Lsize=   14508kB time=00:00:09.98 bitrate=11907.6kbits/s speed=0.664x    
video:14503kB audio:0kB subtitle:0kB other streams:0kB global headers:0kB muxing overhead: 0.032455%
bench: utime=1.136s
bench: maxrss=1408516kB
